<?xml version="1.0" standalone="no"?>
<!DOCTYPE svg PUBLIC "-//W3C//DTD SVG 20010904//EN"
 "http://www.w3.org/TR/2001/REC-SVG-20010904/DTD/svg10.dtd">
<svg version="1.0" xmlns="http://www.w3.org/2000/svg"
 width="482.000000pt" height="257.000000pt" viewBox="0 0 482.000000 257.000000"
 preserveAspectRatio="xMidYMid meet">

<g transform="translate(0.000000,257.000000) scale(0.100000,-0.100000)"
fill="#000000" stroke="none">
<path d="M787 2508 c-8 -18 -186 -420 -396 -894 -209 -473 -381 -866 -381
-873 0 -6 147 -169 328 -361 l327 -349 1609 2 1610 2 422 945 c233 519 422
945 421 946 -1 1 -161 139 -355 308 l-353 306 -1609 0 -1610 0 -13 -32z m1999
-579 l29 -30 0 -720 0 -721 -33 -29 c-46 -41 -94 -40 -159 5 -276 190 -924
654 -945 677 -22 23 -28 39 -28 72 0 23 7 50 14 60 8 10 236 175 507 367 473
335 496 349 540 350 38 0 50 -5 75 -31z"/>
</g>
</svg>
